<?xml version="1.0" encoding="utf-8"?>
<!-- Generator: Adobe Illustrator 22.1.0, SVG Export Plug-In . SVG Version: 6.00 Build 0)  -->
<svg version="1.1" id="Layer_1" xmlns="http://www.w3.org/2000/svg" xmlns:xlink="http://www.w3.org/1999/xlink" x="0px" y="0px" viewBox="0 0 512 512" style="enable-background:new 0 0 512 512;" xml:space="preserve">
    <g>
        <path fill="#616161" d="M256,74.5c100.3,0,181.5,81.2,181.5,181.5c0,100.3-81.2,181.5-181.5,181.5c-100.3,0-181.5-81.2-181.5-181.5
		C74.5,155.7,155.7,74.5,256,74.5 M256,31C131.7,31,31,131.7,31,256s100.7,225,225,225s225-100.7,225-225S380.3,31,256,31z
		 M256,183.4c-40.1,0-72.6,32.5-72.6,72.6s32.5,72.6,72.6,72.6s72.6-32.5,72.6-72.6S296.1,183.4,256,183.4z" />
    </g>
</svg>